<?xml version="1.0" encoding="UTF-8"?>
<svg version="1.1" xmlns="http://www.w3.org/2000/svg" width="366" height="366">
<path d="M0 0 C1.08410156 0.70640625 2.16820312 1.4128125 3.28515625 2.140625 C5.4361263 3.53136076 7.58716745 4.92198658 9.73828125 6.3125 C10.68348633 6.92706055 11.62869141 7.54162109 12.60253906 8.17480469 C13.12496185 8.50632034 13.64738464 8.837836 14.18563843 9.17939758 C15.60417732 10.10838198 16.99493625 11.07990172 18.3722229 12.0690155 C25.72612194 17.15039386 32.72517698 19.32179393 41.40234375 21.22265625 C42.7894842 21.54245895 44.1761993 21.86411141 45.56251526 22.18746948 C49.24632643 23.04121656 52.93550778 23.86898881 56.62641525 24.69143295 C60.46545139 25.55160241 64.29887781 26.43610883 68.13305664 27.31762695 C76.41586795 29.21694003 84.70623397 31.0815319 92.9993515 32.93525696 C96.09522036 33.62773974 99.19039603 34.32330512 102.28564453 35.01855469 C110.89116753 36.94907951 119.49891745 38.86807165 128.11541748 40.74902344 C135.86907329 42.44467652 143.60897451 44.19418475 151.3359375 46.0078125 C152.2056871 46.20924362 153.07543671 46.41067474 153.97154236 46.61820984 C164.3898492 49.08781502 173.41910112 52.92444927 182.03515625 59.390625 C183.27458984 60.31681641 183.27458984 60.31681641 184.5390625 61.26171875 C197.83583541 72.60247186 202.33838666 90.70338687 204.03515625 107.390625 C206.94317612 169.30537635 189.81463862 235.9354675 147.48730469 282.80517578 C115.01060918 318.26308779 72.23825683 329.94593934 25.16796875 332.265625 C3.75080461 332.98269401 -17.30632697 332.57107153 -37.96484375 326.390625 C-38.60647461 326.20097168 -39.24810547 326.01131836 -39.90917969 325.81591797 C-44.32172219 324.49391935 -48.64728057 323.00080533 -52.96484375 321.390625 C-54.08503906 320.98457031 -55.20523438 320.57851563 -56.359375 320.16015625 C-63.78681163 317.03715269 -66.79180355 313.57944388 -69.9765625 306.1953125 C-74.04372223 294.65293825 -71.48840133 282.55005342 -69.64160156 270.76855469 C-69.39118845 269.12785561 -69.14154609 267.48703874 -68.89260864 265.84611511 C-68.21888218 261.42102821 -67.53392031 256.99775039 -66.84641361 252.57478619 C-66.12464098 247.92134591 -65.41199 243.26650728 -64.69793701 238.61187744 C-63.4970534 230.7934812 -62.28880946 222.97624921 -61.07617188 215.15966797 C-59.68028573 206.16126643 -58.29616779 197.16111497 -56.91837811 188.15992618 C-55.58624211 179.45892483 -54.2455404 170.75926337 -52.9010849 162.06015778 C-52.33222314 158.37840519 -51.76630392 154.6962189 -51.20285797 151.01363373 C-50.53669285 146.66222717 -49.86295238 142.31205535 -49.18371201 137.96267128 C-48.93769908 136.37979976 -48.6941402 134.79654423 -48.45342636 133.2128582 C-45.56262563 114.21957569 -42.12350725 97.97562255 -29.11328125 83.09375 C-26.65311212 79.99840993 -24.85347598 76.86023896 -22.96484375 73.390625 C-23.70532959 72.9373584 -24.44581543 72.4840918 -25.20874023 72.01708984 C-27.99964384 70.30755517 -30.78955981 68.59643011 -33.57885742 66.88427734 C-34.77801979 66.1486284 -35.97755374 65.41358478 -37.17749023 64.67919922 C-59.88713729 50.77842987 -59.88713729 50.77842987 -61.83984375 42.828125 C-62.93610186 30.41941619 -56.02901575 19.04948428 -48.65234375 9.703125 C-33.41179382 -8.19684975 -20.29380254 -13.08318406 0 0 Z M32.03515625 95.390625 C28.96308566 111.28484941 26.88433601 127.33234984 24.69239259 143.36544847 C24.25365979 146.57189693 23.812924 149.77806889 23.37223166 152.98424852 C22.33311664 160.54458976 21.297419 168.10539361 20.26391602 175.66650391 C19.20025383 183.44780073 18.13068997 191.22827057 17.05829412 199.00836813 C16.13339047 205.71997655 15.21213916 212.43207942 14.29380435 219.14458978 C13.74708521 223.14052407 13.19900209 227.13625878 12.64737892 231.13151932 C12.13014508 234.87886199 11.61748798 238.62680313 11.10830498 242.37524796 C10.92127517 243.74644587 10.73265393 245.11742784 10.54228973 246.48816681 C10.28190112 248.36501419 10.02793358 250.24274901 9.77424622 252.12051392 C9.63065579 253.16863565 9.48706537 254.21675739 9.33912373 255.2966404 C9.00686865 258.67855509 8.98468389 261.99457711 9.03515625 265.390625 C25.90045477 271.38717559 46.53905237 264.708698 62.03515625 257.390625 C75.58109258 250.8711904 87.08417623 242.73618499 98.03515625 232.390625 C98.79699219 231.69324219 99.55882812 230.99585938 100.34375 230.27734375 C120.88659895 210.80258053 131.38210094 180.72576712 133.2734375 152.8828125 C133.50157364 141.76417753 132.20820072 130.8778977 124.77734375 122.09765625 C114.35672385 111.88731792 99.41790789 109.86170929 85.6875 106.71875 C84.2582802 106.38845024 82.82912805 106.05785764 81.40003967 105.72698975 C78.43511253 105.04165986 75.46944449 104.35966627 72.50317383 103.68017578 C68.70562339 102.80999786 64.9100468 101.9315277 61.11496639 101.05064774 C58.1774838 100.36973255 55.2390451 99.69302225 52.30029488 99.01760101 C50.89938746 98.69512165 49.4987724 98.37136938 48.09846306 98.0463028 C46.14987571 97.59464581 44.1998447 97.14923096 42.24975586 96.70410156 C41.14313095 96.44969299 40.03650604 96.19528442 38.89634705 95.9331665 C35.86552365 95.26642425 35.86552365 95.26642425 32.03515625 95.390625 Z " fill="#FAE900" transform="translate(127.96484375,15.609375)"/>
<path d="M0 0 C0 3 0 3 -2.625 5.91796875 C-3.74249406 7.01550756 -4.86785643 8.10507895 -6 9.1875 C-6.57234375 9.74630859 -7.1446875 10.30511719 -7.734375 10.88085938 C-9.14962788 12.26073093 -10.57397155 13.63126734 -12 15 C-12.66 14.67 -13.32 14.34 -14 14 C-12.23304141 12.03804598 -10.46168211 10.08040373 -8.6875 8.125 C-8.18798828 7.56941406 -7.68847656 7.01382812 -7.17382812 6.44140625 C-4.8912844 3.93211977 -2.83639832 1.89093222 0 0 Z " fill="#978D00" transform="translate(92,13)"/>
</svg>
